<?xml version="1.0" encoding="utf-8"?>
<!DOCTYPE svg PUBLIC "-//W3C//DTD SVG 20010904//EN" "http://www.w3.org/TR/2001/REC-SVG-20010904/DTD/svg10.dtd">
<svg version="1.0" xmlns="http://www.w3.org/2000/svg" width="320px" height="360px" viewBox="-25 -25 360 360">
    <rect height="340px" width="360px" x="-25" y="-25" rx="50" ry="50" fill="#9d9dd9" />
    <g fill="#0a0a0a">

        <path
            d="M154 271.9 c-6.6 -0.6 -11.1 -1.5 -27.5 -4.9 -11.2 -2.4 -33.2 -13 -44.2 -21.2 -7 -5.4 -30.3 -28 -30.3 -29.6 0 -0.5 -1.1 -2.2 -2.5 -3.8 -1.4 -1.6 -2.5 -2.4 -2.5 -1.7 0 0.6 0.5 1.5 1 1.8 0.6 0.4 0.8 1 0.6 1.3 -0.2 0.4 0.1 3.6 0.9 7.1 0.7 3.5 1.2 6.8 1.1 7.4 -0.3 2.3 -1.7 3.6 -3.1 3 -1.2 -0.4 -1.5 0.5 -1.5 4.7 0 2.9 -0.5 7.1 -1.2 9.3 -1.4 4.6 -6.3 9.9 -8.8 9.5 -1 -0.2 -2.7 0.5 -3.8 1.5 -3.1 2.8 -9 4.6 -15.4 4.7 -4.9 0 -6.2 -0.4 -9.1 -2.9 -4.5 -4 -7.2 -12 -6.3 -18.5 0.6 -3.8 1.3 -5.1 3.9 -6.6 2.6 -1.6 3.5 -1.7 5 -0.7 2.1 1.4 2.3 3.2 0.5 3.2 -1.6 0 -2.8 1.5 -2.8 3.4 0 1.2 0.3 1.1 1.3 -0.2 1 -1.4 1.6 -1.5 3.7 -0.4 2.9 1.4 4 4.8 3.3 10 -0.5 3 -0.2 3.7 1.1 3.7 4.2 0 9.1 -4.6 13.1 -12.2 2.3 -4.4 2.4 -5.4 2.1 -17.5 -0.3 -8.4 -1.2 -15.9 -2.6 -21.8 -6.4 -26.7 -8.7 -54.8 -5.7 -69 2.2 -10.1 7.6 -24.1 12.8 -32.6 4.8 -8.1 16.8 -20.6 22.9 -24 4.1 -2.3 5.1 -3.9 2.5 -3.9 -2.6 0 -1.7 -1.8 2.3 -4.5 l3.7 -2.6 -4 0.6 c-4 0.6 -12.2 -0.8 -15.9 -2.8 -1.9 -0.9 -1.9 -1 -0.2 -2.3 1.6 -1.1 1.2 -1.3 -3.1 -1.9 -5.8 -0.8 -14.4 -4 -17.8 -6.7 -1.4 -1.1 -2.5 -3 -2.5 -4.2 0 -1.2 -1.2 -3.3 -2.6 -4.7 -4.1 -3.7 -7.4 -12.3 -7.5 -19.1 -0.1 -4.9 0.4 -6.7 3.1 -11.1 1.7 -2.9 4.6 -6.2 6.5 -7.4 4.3 -2.8 12.1 -3.9 16.9 -2.3 3.3 1.1 7.6 5.1 7.6 7.1 0 1.5 -2.9 1 -3.8 -0.7 -1.1 -1.9 -5.8 -2.2 -7.5 -0.5 -0.6 0.6 -1.2 2.7 -1.3 4.7 -0.1 4.1 -1.3 5.1 -7.1 6 -5.4 0.8 -6.7 2.4 -5.8 7 1.6 8.5 4.4 11.4 18.5 18.4 5.6 2.8 11.1 3.9 48 9.1 22.6 3.2 34.1 7.5 38.9 14.4 2 3 2.3 4.4 1.9 9.5 l-0.4 6 5.2 1.5 c3.6 1 5.3 2.1 5.7 3.5 0.5 1.8 1.2 2.1 5.9 1.9 11.3 -0.5 18.6 -4.6 20.9 -11.8 2 -6.2 5.3 -6.9 6.4 -1.4 1.2 5.7 0.6 10.2 -2 15.3 -5.6 10.9 -11.5 13 -37 13.6 -22.5 0.6 -29 1.6 -38.2 6.1 -10.1 4.9 -13.3 9.3 -13.3 18 0 4.7 0.4 6.5 1.5 6.9 1.3 0.5 2.2 3.4 1.1 3.4 -6.5 0 -13.3 -12.5 -10.6 -19.5 1.6 -4.2 0.4 -4.1 -2.4 0.2 -5.3 8.2 -7.1 15.6 -7.1 30.3 0 14.8 1 18.1 7.8 26 3.3 3.8 4.6 4.5 11.9 6.5 4.3 1.2 5.1 1.1 9.7 -1.1 2.8 -1.3 5.1 -2.7 5.1 -3.2 0 -0.5 -0.9 -1.7 -2 -2.7 -3 -2.7 -2.6 -7 1 -9.6 2.3 -1.7 2.7 -2.6 2 -3.9 -2.6 -4.8 6.3 -4.6 10.8 0.3 3.2 3.4 3.8 10.5 1.4 15.9 -3.8 8.6 -10.8 11.7 -26.4 11.8 -8.8 0 -11.4 -0.8 -18.3 -5.6 -2.8 -2 -3.3 -1.8 -2.7 1.2 0.5 2.9 0.3 2.9 -5.1 -0.9 -1.6 -1 -3 -1.7 -3.3 -1.5 -0.6 0.6 3.5 9.5 6.1 13.1 14.3 20.3 33.7 37.8 53.4 48.2 2.4 1.3 3.6 2.6 3.4 3.5 -0.4 1.3 -0.3 1.3 0.5 0.1 0.9 -1.3 1.6 -1.3 4.9 0.2 7 2.9 22.6 6.8 31.7 7.9 5 0.5 15.9 0.8 24.1 0.5 12.7 -0.4 16.2 -0.9 23 -3.2 10.6 -3.5 19.2 -8.4 24.6 -14 4.8 -4.9 4.7 -4.7 3.5 -8.8 -0.5 -1.8 -0.4 -3.8 0.3 -5.3 2 -4.6 -0.1 -4.7 -2.9 -0.2 -2.9 4.7 -8.4 9.9 -12.8 12.2 -9.1 4.7 -26.1 1.8 -36.2 -6.3 -1.4 -1.1 -1.9 -2.1 -1.2 -2.1 0.6 0 1.2 -0.5 1.2 -1.1 0 -0.6 -0.7 -0.9 -1.5 -0.5 -0.9 0.3 -4.2 -0.9 -7.5 -2.6 -5.9 -3.1 -6.1 -3.1 -12.8 -2 -7.8 1.4 -19 1.3 -19.8 0 -0.4 -0.6 0 -2.1 0.7 -3.5 1.1 -2 1.1 -2.6 0 -3.2 -1.1 -0.7 -1 -1.4 0.4 -3.5 1 -1.4 2.1 -2.6 2.6 -2.6 0.5 0 0.9 -0.5 0.9 -1.1 0 -0.6 -0.9 -0.8 -2.1 -0.4 -3.6 1.2 -8.9 -0.3 -8.9 -2.5 0 -3.9 -8.5 -5.5 -12.8 -2.4 -1.3 0.9 -2.6 1.4 -2.9 1 -1.2 -1.2 0.8 -3.6 4.9 -5.7 5.3 -2.7 17.5 -3 25.8 -0.6 6.1 1.8 18.9 10.3 22.2 14.8 1.2 1.6 2.4 2.9 2.7 2.9 0.3 0 0.5 -3.3 0.3 -7.4 -0.4 -9.6 0.8 -13.9 6.1 -20.6 5.4 -6.8 14 -11.4 24.2 -12.9 8.9 -1.3 11.2 -0.8 21.3 4.2 9.3 4.6 12.4 7.6 15.9 15.6 1.3 3 3.1 6.4 3.9 7.5 2.6 3.6 0.9 -17.7 -2.2 -28.6 -0.3 -0.9 -1.4 -2 -2.5 -2.3 -1.1 -0.4 -3 -2.7 -4.2 -5.1 -1.9 -4 -2.5 -4.4 -5.2 -4.2 -2.9 0.3 -3 0.1 -3.3 -3.9 -0.4 -5 1.8 -8.8 5.4 -9.7 1.3 -0.4 2.4 -1.3 2.4 -2.1 0 -2.6 -6.2 -1.7 -13 1.9 -8.4 4.3 -14 4.4 -17.5 0 -1.4 -1.6 -2.2 -3.4 -2 -4.1 0.5 -1.6 -3.1 -2.7 -7.5 -2.4 -5.2 0.4 -14.4 5.4 -15.8 8.7 -1.8 3.8 -3.7 1.8 -2.1 -2.2 3 -6.9 7.8 -12.1 14.1 -15.2 13.2 -6.4 23.4 -6.4 42.1 -0.2 9.7 3.3 12.2 3.3 6 0.1 -5 -2.5 -10.7 -8.8 -12.3 -13.5 -1.4 -4.4 -5.6 -12 -7.3 -13.4 -0.7 -0.5 -3.4 -1.2 -6 -1.5 -5.9 -0.6 -10.9 -4.7 -10.5 -8.6 0.4 -3.7 -4.6 -6.8 -10.1 -6.3 -3.2 0.3 -5.1 1.3 -7.8 3.9 -4.5 4.5 -6.3 3.2 -3.5 -2.3 2.3 -4.4 7.4 -8.8 13 -11.1 4.1 -1.7 16.5 -1.2 20.5 0.8 5 2.6 10.4 7.9 12.8 12.7 2.8 5.4 3.9 5.7 3.9 1.1 0 -1.5 0.3 -2.9 0.8 -3.2 0.4 -0.2 0.1 -0.2 -0.5 -0.1 -0.7 0.2 -1.3 -0.4 -1.4 -1.4 -0.2 -4.6 -1.3 -8.2 -4.1 -13.5 -3.5 -6.4 -4.4 -7.2 -10.4 -8.2 -6.4 -1 -8.8 -4.2 -8.9 -11.7 0 -5.9 -0.2 -6.3 -3.4 -8.5 -3.6 -2.4 -7.5 -3 -8.6 -1.3 -0.9 1.5 -2.5 1.2 -2.5 -0.6 0 -0.8 2 -2.4 4.7 -3.6 11.3 -5 24.1 -0.1 31.8 12.3 3.1 4.8 3.1 6.6 0.3 7.2 -2.1 0.4 -2.1 0.4 0.2 0.6 3.6 0.2 5 4.7 5.2 16.1 0.1 5 0.5 8.7 0.9 8.3 1.5 -1.6 4.3 -25.2 4.4 -36.5 0 -8.5 0.3 -11.7 1.2 -11.5 1.1 0.2 1.3 -0.1 1.3 -2.4 0 -0.8 -0.4 -0.8 -1.4 0 -1.2 1 -1.8 0.4 -3.5 -3.5 -1.7 -3.8 -1.9 -4.9 -0.9 -5.7 1 -0.6 0.8 -0.7 -0.4 -0.4 -0.9 0.3 -2.4 0 -3.3 -0.7 -1.3 -0.9 -2.7 -1 -5.6 -0.2 -5.3 1.4 -9.2 -0.4 -8.7 -4.1 0.4 -3.3 -2.1 -4.2 -5.8 -2.2 -3 1.6 -3.9 0.7 -2.2 -2 4.9 -8 22.7 -6 31.1 3.4 1.7 1.9 6.7 10.9 6.7 12 0 0.9 -4 -0.1 -5.2 -1.3 -0.9 -0.9 -0.8 -1.2 0.7 -1.3 1.9 0 1.9 -0.1 0 -0.9 -1.1 -0.5 -3.3 -0.8 -5 -0.8 -1.6 0 -2.3 0.2 -1.5 0.4 0.9 0.3 2 1.5 2.5 2.7 0.6 1.4 2.1 2.3 3.8 2.5 2.2 0.3 2.7 0.7 2.2 2.2 -0.3 1 -0.2 2.1 0.3 2.3 0.4 0.3 0.9 -0.4 0.9 -1.6 0.1 -1.2 0.8 -2.6 1.6 -3.2 0.8 -0.6 1.7 -2.4 2.1 -4.2 1.9 -8.6 12.1 -17.7 20.9 -18.8 5.5 -0.6 11.7 0.9 14.6 3.6 2.6 2.5 3.9 8.8 2 10 -2.1 1.3 -2.9 1.1 -2.9 -0.9 0 -2.4 -1.9 -4.2 -3.6 -3.5 -0.8 0.3 -1.4 1.3 -1.4 2.2 0 3.9 -3.7 5 -9.6 2.9 -4 -1.4 -5.1 -0.5 -8.7 7.3 -5.3 11.3 -6.2 32.8 -1.8 45.4 l2.1 6 -0.4 -7.3 c-0.7 -13.6 1.9 -21.1 10.6 -30 6.2 -6.5 11 -8.3 20.8 -8.1 8.9 0.2 12 1.6 12 5.5 0 2.7 -0.3 2.9 -3.3 1.2 -1.2 -0.7 -5.1 -1.3 -8.7 -1.3 -3.6 -0.1 -5.5 0.1 -4.2 0.4 2.1 0.6 2.1 0.7 -1.2 3.3 -4.1 3.3 -5.2 7.9 -2.3 10.3 1.5 1.3 1.8 2.5 1.4 5.2 -0.8 4.7 -1.9 5.8 -9.5 9.6 -8.6 4.3 -9.8 6.2 -10.5 17.2 -0.4 5.8 -0.3 8.5 0.3 7.5 0.5 -0.8 1 -2.2 1 -3.1 0 -3 8.7 -11.5 13.9 -13.8 9.3 -3.9 20.5 -1.4 23.8 5.3 1.3 2.9 1.4 3.9 0.4 4.9 -1 0.9 -1.6 0.6 -3.3 -1.6 -2.5 -3.5 -6.1 -3.5 -12.2 -0.1 -4.8 2.7 -5.6 4.3 -3.1 6.4 2.1 1.7 1.9 7.3 -0.3 9.3 -0.9 0.9 -3.9 1.7 -6.7 1.9 -4.3 0.3 -5.2 0.7 -7.2 3.6 -1.2 1.8 -3.1 6.3 -4.3 10 -2.6 8 -7.1 12.7 -13.1 13.7 -2.1 0.4 -4.2 1.2 -4.6 1.7 -0.6 1.1 1.2 0.8 5 -0.7 1 -0.4 1.7 -0.3 1.7 0.3 0 0.6 -0.8 1.3 -1.7 1.5 -1.7 0.4 -1.7 0.5 0 0.6 0.9 0 1.7 0.6 1.7 1.1 0 0.6 0.7 1 1.5 1 1.3 0 1.3 -0.3 0.3 -2 -1.8 -2.8 -0.5 -3.6 9.1 -6 13.2 -3.3 26.4 -2.9 34.1 1 5.5 2.8 14 13.4 14 17.5 0 1.7 -1.6 2 -2.5 0.5 -1.6 -2.6 -8.8 -6 -13.8 -6.6 -7.7 -0.9 -14.7 2.8 -10.1 5.4 2.9 1.6 0.5 3.2 -4.6 3.2 -5.8 0 -9.4 -1.4 -13.5 -5.2 -2.2 -1.9 -3.7 -2.6 -5.3 -2.2 -2.9 0.8 -2.8 2.8 0.3 4.8 2.8 1.8 5.7 6.8 5.1 8.8 -0.2 0.7 -0.7 2.5 -1 4.1 -0.6 2.3 -1.1 2.7 -4.1 2.7 -2.8 0 -3.6 0.5 -4 2.3 -0.4 1.3 -1.9 3.1 -3.6 4.1 -1.6 0.9 -3 2 -3 2.4 -0.4 2 -2.8 23.9 -3.5 31.3 l-0.6 6.7 4.4 0.7 c6.9 1.1 8.4 2.6 9.2 8.8 0.3 3.1 0.9 6.2 1.2 7.1 1 2.5 -4.1 4 -6.9 2.1 -1.2 -0.8 -3 -1.5 -4.1 -1.5 -1.7 0 -1.8 0.6 -1.2 9.3 0.5 6.4 1.5 10.8 3.2 14.6 3.3 7.4 3.1 8.7 -1.6 11.1 -2.2 1.1 -4.6 2.9 -5.2 4 -1.5 2.4 -4.1 2.6 -5.9 0.4 -0.8 -0.9 -3.1 -2.7 -5.1 -4 -4.4 -2.8 -4.7 -4.2 -1.4 -8.1 2.5 -3 5 -11 6.2 -19.9 0.7 -5.5 0 -6.6 -3.1 -5.3 -1.6 0.6 -1.7 0.8 -0.3 0.8 1.5 0.1 1.5 0.4 0.5 2.9 -3 6.5 -10 16.1 -14 18.9 -12.8 9.2 -27.1 14 -48.7 16.2 -11.5 1.2 -16.6 1.2 -28 0z m40 -3.3 c1.4 -0.2 -1 -0.4 -5.2 -0.5 -4.3 0 -7.8 0.2 -7.8 0.7 0 0.6 7 0.6 13 -0.2z m-34.8 -0.8 c1.6 -1 -4.6 -0.9 -8.7 0.2 -2.5 0.7 -2.1 0.8 2.2 0.7 2.9 0 5.8 -0.4 6.5 -0.9z m14.1 -0.5 c-1.3 -0.2 -3.3 -0.2 -4.5 0 -1.3 0.2 -0.3 0.4 2.2 0.4 2.5 0 3.5 -0.2 2.3 -0.4z m-18.5 -2 c-1 -0.2 -2.8 -0.2 -4 0 -1.3 0.2 -0.5 0.4 1.7 0.4 2.2 0.1 3.2 -0.1 2.3 -0.4z m55.8 -1.6 c0.4 -0.4 -0.5 -0.7 -2 -0.7 -1.5 0 -2.5 0.4 -2.2 0.9 0.7 1 3.1 0.9 4.2 -0.2z m45.9 -3 c1.3 -0.3 0.8 -0.6 -1.5 -0.7 l-3.5 -0.3 4 -0.7 c3.5 -0.6 3.2 -0.7 -2.5 -0.8 -4.6 0 -5.8 0.2 -4 0.8 1.4 0.4 2.1 0.9 1.5 0.9 -0.5 0.1 -0.3 0.6 0.5 1.1 0.9 0.6 1.1 1 0.3 1 -0.7 0 -1 0.7 -0.7 1.5 0.5 1.3 0.9 1.3 2.3 -0.4 0.9 -1 2.5 -2.1 3.6 -2.4z m-128.5 2.3 c1.2 -0.8 0.9 -1 -1.3 -1 -1.6 0 -2.6 0.4 -2.2 1 0.8 1.2 1.6 1.2 3.5 0z m12 -0.6 c0 -0.2 -2.4 -0.4 -5.2 -0.3 -3.8 0.1 -4.6 0.3 -2.8 0.8 2.4 0.7 8 0.3 8 -0.5z m43 0.2 c0 -0.2 -1.1 -0.6 -2.5 -0.8 -1.4 -0.3 -2.5 -0.1 -2.5 0.3 0 0.5 1.1 0.9 2.5 0.9 1.4 0 2.5 -0.2 2.5 -0.4z m28.9 -3.1 c-0.8 -0.7 -10.8 -0.9 -11.6 -0.2 -0.3 0.4 2.2 0.7 5.7 0.7 3.5 0 6.1 -0.2 5.9 -0.5z m-78.1 -3.2 c-1 -0.2 -2.6 -0.2 -3.5 0 -1 0.3 -0.2 0.5 1.7 0.5 1.9 0 2.7 -0.2 1.8 -0.5z m120 -6 c-1 -0.2 -2.8 -0.2 -4 0 -1.3 0.2 -0.5 0.4 1.7 0.4 2.2 0.1 3.2 -0.1 2.3 -0.4z m-223.2 -1.2 c-0.4 -0.5 0 -1.2 0.6 -1.4 0.8 -0.3 0.6 -0.6 -0.4 -0.6 -1 -0.1 -1.8 0.6 -1.8 1.4 0 0.8 0.5 1.5 1.1 1.5 0.5 0 0.8 -0.4 0.5 -0.9z m84.4 -2.2 c0 -0.5 -0.6 -0.9 -1.3 -0.9 -0.8 0 -1.4 0.6 -1.4 1.4 0 0.8 0.6 1.2 1.4 0.9 0.7 -0.3 1.3 -0.9 1.3 -1.4z m-74.5 -8.9 c0.4 -0.6 -0.9 -1 -3.2 -0.9 -3.4 0.1 -3.5 0.2 -1.3 0.9 3.5 1.1 3.8 1.1 4.5 0z m58.9 -0.5 c-0.4 -0.8 -1 -1.5 -1.6 -1.5 -0.5 0 -0.7 0.4 -0.3 0.9 0.3 0.5 -0.7 1.2 -2.2 1.4 -2.3 0.3 -2.1 0.4 0.9 0.6 2.9 0.1 3.6 -0.2 3.2 -1.4z m104.6 0.5 c0 -0.5 -1.2 -1 -2.7 -0.9 -2.5 0 -2.6 0.1 -0.8 0.9 2.7 1.2 3.5 1.2 3.5 0z m-115.2 -2.7 c-2.1 -0.5 -2.3 -1.9 -0.5 -2.6 0.6 -0.3 -0.8 -0.5 -3.3 -0.5 -4.1 0 -4.2 0.1 -1.5 0.8 1.7 0.4 2.2 0.8 1.3 0.9 -3.6 0.2 -1.7 2.1 2 2 2 -0.1 2.9 -0.3 2 -0.6z m-6.9 -0.7 c-0.8 -0.8 -7.8 -1 -8.5 -0.3 -0.4 0.4 1.4 0.7 4.1 0.7 2.7 0 4.6 -0.2 4.4 -0.4z m118.1 -3.1 c-0.7 -0.8 -2.1 -1.5 -3.2 -1.5 -1.7 0 -1.8 0.3 -0.8 1.5 0.7 0.8 2.1 1.5 3.2 1.5 1.7 0 1.8 -0.3 0.8 -1.5z m15.1 -0.2 c3.5 -2.1 3.6 -2.7 0.7 -4 -2 -0.9 -2.5 -0.6 -3.9 2.3 -1.8 3.8 -1.1 4.2 3.2 1.7z m9.9 1.3 c0 -0.9 -4 -1.3 -4.6 -0.5 -0.3 0.5 0.6 0.9 2 0.9 1.4 0 2.6 -0.2 2.6 -0.4z m-182.4 -3.5 c-0.4 -0.5 0 -1.2 0.6 -1.4 0.7 -0.3 -0.5 -0.5 -2.7 -0.5 -2.5 0.1 -3.1 0.2 -1.6 0.5 1.9 0.4 2.1 0.7 1 1.4 -1.1 0.7 -0.8 0.9 0.9 0.9 1.3 0 2.1 -0.4 1.8 -0.9z m41.7 0.2 c-1.3 -0.2 -3.3 -0.2 -4.5 0 -1.3 0.2 -0.3 0.4 2.2 0.4 2.5 0 3.5 -0.2 2.3 -0.4z m123 0 c-1.3 -0.2 -3.3 -0.2 -4.5 0 -1.3 0.2 -0.3 0.4 2.2 0.4 2.5 0 3.5 -0.2 2.3 -0.4z m54.2 -2.7 c1.1 -0.2 -2.7 -0.3 -8.5 -0.3 -5.8 0 -8.9 0.2 -7 0.6 3.3 0.6 11 0.4 15.5 -0.3z m-56.2 -2.3 c-1.3 -0.2 -3.3 -0.2 -4.5 0 -1.3 0.2 -0.3 0.4 2.2 0.4 2.5 0 3.5 -0.2 2.3 -0.4z m17.2 -0.2 c-0.3 -0.5 0.3 -1.2 1.2 -1.4 1.5 -0.4 1.5 -0.5 0.2 -0.6 -0.9 0 -2.2 0.6 -2.9 1.4 -1 1.2 -0.9 1.5 0.4 1.5 1 0 1.5 -0.4 1.1 -0.9z m-150.5 -1.1 c0 -0.6 -2.5 -0.9 -5.7 -0.9 -5.2 0.1 -5.4 0.2 -2.3 0.9 5.3 1.1 8 1.1 8 0z m131.4 -1.5 c-0.6 -1.6 -2.4 -2.1 -2.4 -0.7 0 1.1 1.1 2.2 2.1 2.2 0.5 0 0.6 -0.7 0.3 -1.5z m17.6 0 c1 -1.2 0.9 -1.5 -0.8 -1.5 -1.1 0 -2.2 -0.4 -2.4 -0.9 -0.1 -0.4 -1.2 -0.5 -2.3 0 -1.9 0.7 -1.9 0.8 0.3 0.8 1.3 0.1 2.2 0.7 2.2 1.6 0 0.8 0.4 1.5 0.9 1.5 0.5 0 1.4 -0.7 2.1 -1.5z m-140 -0.5 c0 -0.5 -1.5 -1 -3.4 -1 -1.9 0 -4.3 -0.3 -5.3 -0.6 -1.2 -0.5 -1.5 -0.4 -0.8 0.4 0.6 0.6 2.6 1.2 4.5 1.5 1.9 0.2 3.8 0.5 4.3 0.5 0.4 0.1 0.7 -0.2 0.7 -0.8z m181.9 0.6 c-0.9 -0.9 -14.8 -1.5 -15.3 -0.7 -0.3 0.5 3.1 0.9 7.6 1 4.5 0.1 8 0 7.7 -0.3z m-76 -5.8 c-1.1 -1.9 -1.4 -2 -1.7 -0.6 -0.2 0.9 0.2 2.7 0.9 4 1.1 1.9 1.4 2 1.7 0.6 0.2 -0.9 -0.2 -2.7 -0.9 -4z m49.9 1.6 c2.7 -4.3 2.7 -4.9 0.1 -12 -2.7 -7.2 -14.1 -18.9 -17.7 -18.2 -1.2 0.2 -0.5 1.1 2.3 2.8 5 3 5.7 3.9 10.1 12.7 3.7 7.3 3.9 9 1.8 16.1 -1 3.3 0.8 2.6 3.4 -1.4z m-170.3 1.2 c-2.6 -0.8 -3.5 -1.4 -2.5 -1.8 1 -0.5 0.8 -0.7 -0.7 -0.7 -1.3 -0.1 -2.3 0.4 -2.3 0.9 0 0.6 -0.8 1 -1.7 1.1 -3.9 0.1 2.3 1.8 6.7 1.8 l4.5 -0.1 -4 -1.2z m12 -0.6 c-0.3 -0.5 -2.5 -0.9 -4.8 -0.9 l-4.2 0.2 4 0.7 c2.2 0.4 4.4 0.8 4.8 0.9 0.5 0 0.5 -0.3 0.2 -0.9z m168.8 0.3 c-1.3 -0.2 -3.5 -0.2 -5 0 -1.6 0.2 -0.5 0.4 2.2 0.4 2.8 0 4 -0.2 2.8 -0.4z m-49.3 -1.3 c-2 -0.5 -3.9 -0.5 -4.4 0.1 -0.6 0.5 0.7 0.9 3.5 0.8 l4.4 -0.1 -3.5 -0.8z m-154.5 -2 c1.5 -0.7 1 -0.9 -2.2 -0.9 -2.4 -0.1 -4.3 0.4 -4.3 0.9 0 1.2 3.7 1.2 6.5 0z m182.5 0 c0 -1.3 -1.1 -1.3 -3 0 -1.2 0.8 -1.1 1 0.8 1 1.2 0 2.2 -0.4 2.2 -1z m-167.5 -2 c-0.3 -0.5 -1.6 -1 -2.8 -1.1 -2 0 -2.1 -0.1 -0.3 -0.8 1.2 -0.4 1.5 -1 0.9 -1.4 -0.6 -0.4 -1.8 0.2 -2.8 1.3 -1.6 1.8 -1.6 1.9 1.7 2.3 1.8 0.2 3.4 0.5 3.6 0.5 0.2 0.1 0 -0.2 -0.3 -0.8z m-15.5 -0.9 c0 -0.5 -1.8 -0.9 -4 -0.8 -2.2 0.1 -4 0.5 -4 0.9 0 0.5 1.8 0.8 4 0.8 2.2 0 4 -0.4 4 -0.9z m166.4 -1.9 c0.2 -0.4 -0.4 -1.3 -1.4 -1.9 -1.5 -1 -1.7 -0.9 -1.3 0.8 0.5 2 1.8 2.5 2.7 1.1z m19.4 -0.9 c-1 -0.2 -2.6 -0.2 -3.5 0 -1 0.3 -0.2 0.5 1.7 0.5 1.9 0 2.7 -0.2 1.8 -0.5z m-167.8 -3.3 c-1.4 -0.4 -3.6 -0.8 -5 -0.8 -2.3 -0.1 -2.3 0 -0.5 0.8 1.1 0.5 3.4 0.8 5 0.8 2.9 0 2.9 0 0.5 -0.8z m0 -2.5 c-7.5 -1.6 -9.6 -1.8 -8.7 -0.8 0.9 0.9 7.5 2.1 11.7 2.1 2.5 0 1.6 -0.4 -3 -1.3z m-21.2 -0.2 c-1 -0.2 -2.8 -0.2 -4 0 -1.3 0.2 -0.5 0.4 1.7 0.4 2.2 0.1 3.2 -0.1 2.3 -0.4z m95.2 -3.3 c-1.9 -1.3 -3 -1.3 -3 0 0 0.6 1 1 2.3 1 1.8 0 1.9 -0.2 0.7 -1z m76.5 0 c-0.3 -0.5 -2.3 -1 -4.3 -0.9 -3 0 -3.3 0.2 -1.7 0.9 2.8 1.2 6.7 1.2 6 0z m9 0.3 c-2.2 -0.3 -4.4 -1.1 -4.8 -1.9 -0.5 -0.9 -2.2 -1.3 -4.5 -1.3 -3.4 0.2 -3.5 0.2 -0.7 0.6 1.7 0.3 3.4 1.1 3.8 1.9 0.5 0.9 2.4 1.3 5.5 1.2 l4.7 -0.1 -4 -0.4z m-160 -3.3 c-2.8 -1.2 -3.7 -1.2 -3 0 0.3 0.6 1.6 1 2.8 0.9 2.1 0 2.1 -0.1 0.2 -0.9z m134.5 0 c0 -0.5 -1.5 -0.9 -3.2 -0.9 l-3.3 0.1 3 0.8 c1.7 0.4 3.1 0.8 3.3 0.9 0.1 0 0.2 -0.3 0.2 -0.9z m-158.2 -0.7 c-1 -0.2 -2.8 -0.2 -4 0 -1.3 0.2 -0.5 0.4 1.7 0.4 2.2 0.1 3.2 -0.1 2.3 -0.4z m180.5 -1 c-1.3 -0.2 -3.3 -0.2 -4.5 0 -1.3 0.2 -0.3 0.4 2.2 0.4 2.5 0 3.5 -0.2 2.3 -0.4z m-158.5 -1 c-1 -0.2 -2.6 -0.2 -3.5 0 -1 0.3 -0.2 0.5 1.7 0.5 1.9 0 2.7 -0.2 1.8 -0.5z m177 -2 c-1 -0.2 -2.6 -0.2 -3.5 0 -1 0.3 -0.2 0.5 1.7 0.5 1.9 0 2.7 -0.2 1.8 -0.5z m-36.9 -2.5 c1.1 -1.5 1.1 -1.8 0 -1.8 -0.8 0 -2.1 0.5 -2.9 1 -1.3 0.9 -1.3 1.1 0 1.9 0.8 0.6 1.5 0.9 1.5 0.8 0 -0.1 0.7 -1 1.4 -1.9z m-148.1 -5.8 c-0.7 -1.1 -2.2 -2 -3.3 -1.9 -1.8 0 -1.8 0.1 0.3 1 1.3 0.5 2 1.3 1.7 1.9 -0.3 0.5 0.1 1 0.9 1 1.4 0 1.4 -0.3 0.4 -2z m-16.3 0 c-1.1 -0.5 -2.9 -0.9 -4 -0.9 l-2 0 2 0.9 c1.1 0.5 2.9 0.9 4 0.9 l2 0 -2 -0.9z m191.5 -1 c-0.8 -0.5 -2.6 -1 -4 -1 -2 0 -2.2 0.2 -1 1 0.8 0.5 2.6 1 4 1 2 0 2.2 -0.2 1 -1z m-14.2 -0.7 c-1 -0.2 -2.8 -0.2 -4 0 -1.3 0.2 -0.5 0.4 1.7 0.4 2.2 0.1 3.2 -0.1 2.3 -0.4z m-174.8 -2.3 c0 -0.5 -1.4 -1 -3.1 -1 -1.7 0 -2.8 0.4 -2.4 1 0.3 0.6 1.7 1 3.1 1 1.3 0 2.4 -0.4 2.4 -1z m-1.5 -3 c-0.3 -0.5 -2.3 -1 -4.3 -0.9 -3 0 -3.3 0.2 -1.7 0.9 2.8 1.2 6.7 1.2 6 0z m10 -2 c-0.3 -0.5 -1.5 -1 -2.6 -1 -1 0 -1.9 0.5 -1.9 1 0 0.6 1.2 1 2.6 1 1.4 0 2.3 -0.4 1.9 -1z m23.4 0.6 c-0.2 -0.2 -3.3 -0.6 -6.9 -0.9 -4.2 -0.4 -5.8 -0.3 -4.5 0.3 1.9 0.8 12.3 1.4 11.4 0.6z m183.6 -4.9 c1.1 -0.2 0 -0.5 -2.5 -0.5 -2.5 0 -3.7 0.2 -2.7 0.5 0.9 0.2 1.7 1 1.7 1.6 0 0.9 0.2 0.9 0.8 0.1 0.4 -0.7 1.6 -1.4 2.7 -1.7z m-204.9 -2.6 c-0.3 -0.5 -1.5 -0.7 -2.6 -0.4 -2.8 0.7 -2.5 1.3 0.6 1.3 1.4 0 2.3 -0.4 2 -0.9z m209.2 -1.8 c-1.6 -0.2 -4 -0.2 -5.5 0 -1.6 0.2 -0.3 0.4 2.7 0.4 3 0 4.3 -0.2 2.8 -0.4z m-201.3 -3.3 c0.4 -0.6 -0.6 -1 -2.2 -0.9 -2.5 0 -2.6 0.1 -0.8 0.9 1.1 0.5 2.1 0.9 2.2 0.9 0.1 0.1 0.5 -0.3 0.8 -0.9z m5.4 -2.4 c-1.2 -1 -7.9 -1.6 -7.9 -0.6 0 0.5 1.9 1 4.2 1 2.3 0 3.9 -0.2 3.7 -0.4z m-18.4 -1.6 c-2.9 -1.2 -9.8 -1.2 -9 0 0.3 0.6 3 1 5.8 0.9 3.8 0 4.7 -0.3 3.2 -0.9z m217.9 -0.1 c-0.2 -0.3 -3.5 -0.9 -7.3 -1.1 -6.7 -0.5 -9.3 -1.7 -9.8 -4.6 -0.2 -0.8 1.2 -1.2 4 -1.3 l4.2 -0.1 -3.8 -0.8 c-4.9 -0.9 -10.9 -0.3 -11.9 1.3 -1.2 1.9 -0.9 3 0.7 2.4 0.8 -0.4 1.7 -0.2 2 0.3 0.4 0.6 1.2 1 1.8 0.9 0.9 0 0.9 -0.2 0 -0.6 -1.8 -0.7 -1.6 -3.3 0.2 -3.3 0.8 0 1.5 0.9 1.5 1.9 0 1.1 0.6 2.2 1.3 2.4 0.6 0.3 0 0.6 -1.5 0.6 -1.6 0.1 -2.8 0.5 -2.8 0.9 0 0.5 3 0.9 6.7 1 3.6 0.1 6.8 0.3 6.9 0.5 0.6 0.6 8.2 0.2 7.8 -0.4z m-201.6 -1.6 c-1 -0.2 -2.6 -0.2 -3.5 0 -1 0.3 -0.2 0.5 1.7 0.5 1.9 0 2.7 -0.2 1.8 -0.5z m177.2 -0.3 c-3.6 -1.1 -5 -1.1 -5 0 0 0.6 1.7 1 3.8 0.9 3.3 -0.1 3.4 -0.2 1.2 -0.9z m18 -1.2 c0 -0.9 0.4 -0.8 1 0.2 0.6 0.9 1 1 1 0.3 0 -1.5 -1.7 -2.6 -2.4 -1.5 -0.3 0.5 -1.8 0.8 -3.3 0.6 -2.8 -0.4 -2.8 -0.4 -0.3 0.5 3.6 1.3 4 1.3 4 -0.1z m7.8 0.5 c-1 -0.2 -2.6 -0.2 -3.5 0 -1 0.3 -0.2 0.5 1.7 0.5 1.9 0 2.7 -0.2 1.8 -0.5z m-198.8 -2.7 c-0.3 -0.2 -3.2 -0.7 -6.5 -1.1 -3.5 -0.4 -5.5 -0.3 -4.7 0.3 1.3 0.9 12 1.7 11.2 0.8z m-1 -2.7 c0 -0.5 -1.5 -0.9 -3.2 -0.9 -1.8 0 -5.8 -0.3 -8.8 -0.6 -3 -0.4 -5.2 -0.3 -4.8 0.1 0.4 0.4 3.6 1.1 7 1.4 3.5 0.4 7.1 0.7 8.1 0.8 0.9 0.1 1.7 -0.2 1.7 -0.8z m195.8 0.4 c-1 -0.2 -2.6 -0.2 -3.5 0 -1 0.3 -0.2 0.5 1.7 0.5 1.9 0 2.7 -0.2 1.8 -0.5z m-219.3 -2.4 c-2.2 -0.4 -6 -0.7 -8.5 -0.7 l-4.5 0.1 4 0.7 c2.2 0.4 6 0.7 8.5 0.7 l4.5 0.1 -4 -0.9z m208 -0.4 c-2.3 -0.8 -8.5 -1 -8.5 -0.3 0 0.4 2.1 0.8 4.8 0.7 2.6 0 4.3 -0.2 3.7 -0.4z m-208 -1.5 c-0.3 -0.5 -1.6 -1 -2.8 -0.9 -2.1 0 -2.1 0.1 -0.2 0.9 2.8 1.2 3.7 1.2 3 0z m24.5 -1 c0 -0.6 -2.5 -0.9 -5.7 -0.8 l-5.8 0.1 5 0.7 c2.8 0.4 5.3 0.8 5.8 0.8 0.4 0.1 0.7 -0.2 0.7 -0.8z m157.8 -0.7 c-2.1 -0.2 -5.5 -0.2 -7.5 0 -2.1 0.2 -0.4 0.4 3.7 0.4 4.1 0 5.8 -0.2 3.8 -0.4z m62.2 -1.7 c0 -0.9 -0.8 -1.2 -2.7 -0.8 l-2.8 0.6 2.5 0.7 c1.4 0.4 2.6 0.7 2.8 0.8 0.1 0.1 0.2 -0.5 0.2 -1.3z m-221.5 -0.6 c0.4 -0.6 -1.7 -0.9 -5.7 -0.9 -5.8 0.2 -6 0.2 -2.3 0.9 6.1 1.1 7.3 1.1 8 0z m164.8 0.3 c-1.3 -0.2 -3.5 -0.2 -5 0 -1.6 0.2 -0.5 0.4 2.2 0.4 2.8 0 4 -0.2 2.8 -0.4z m12.2 -1.3 c0.3 -0.5 -0.3 -1 -1.5 -1 -1.2 0 -1.8 0.5 -1.5 1 0.3 0.6 1 1 1.5 1 0.5 0 1.2 -0.4 1.5 -1z m65.8 0.3 c-1.3 -0.2 -3.3 -0.2 -4.5 0 -1.3 0.2 -0.3 0.4 2.2 0.4 2.5 0 3.5 -0.2 2.3 -0.4z m-267.8 -2.6 c2.7 -0.4 2.7 -0.4 -0.7 -0.6 -3 -0.1 -3.8 0.3 -3.8 1.7 0 1.1 0.3 1.3 0.8 0.5 0.4 -0.6 2.1 -1.3 3.7 -1.6z m23.3 0.6 c-1 -0.2 -2.6 -0.2 -3.5 0 -1 0.3 -0.2 0.5 1.7 0.5 1.9 0 2.7 -0.2 1.8 -0.5z m153.2 -0.4 c5.7 0.2 8 -0.2 8.9 -1.3 0.9 -1.1 0.9 -1.6 0 -2.1 -0.6 -0.4 -1.6 -0.1 -2.1 0.6 -0.7 1.1 -1.1 1.1 -1.5 0.2 -0.6 -1.7 -2.3 -1.7 -2.3 0 0 0.9 -2 1.2 -7.6 1 -6.7 -0.3 -7.5 -0.1 -6.4 1.2 0.7 0.8 1.7 1.2 2.3 0.8 0.5 -0.3 4.4 -0.5 8.7 -0.4z m38 0.1 c0 -0.5 -1.8 -0.9 -3.9 -0.7 -2.1 0.1 -3.7 0.5 -3.4 1 0.6 1.1 7.3 0.9 7.3 -0.3z m8 0.6 c0 -0.8 -6.1 -1.2 -6.6 -0.4 -0.3 0.4 1.1 0.8 3 0.8 2 0 3.6 -0.2 3.6 -0.4z m-18.9 -1.7 c-1.6 -0.6 -2.8 -0.6 -3.5 0.1 -0.7 0.7 0.1 1 2.5 0.9 3.2 0 3.3 -0.1 1 -1z m57.7 0.4 c-2.6 -0.2 -7.1 -0.2 -10 0 -2.9 0.2 -0.8 0.3 4.7 0.3 5.5 0 7.9 -0.1 5.3 -0.3z m-28.8 -1.7 c0 -0.2 -1.1 -0.6 -2.5 -0.8 -1.4 -0.3 -2.5 -0.1 -2.5 0.3 0 0.5 1.1 0.9 2.5 0.9 1.4 0 2.5 -0.2 2.5 -0.4z m-220 -4.9 c0.8 -0.3 0 -0.4 -1.7 -0.4 -1.8 0.1 -3.3 0.5 -3.3 0.9 0 0.9 2.4 1.6 3 0.8 0.3 -0.4 1.2 -1 2 -1.3z m15 -1.9 c0 -0.5 -1.1 -0.8 -2.5 -0.8 -1.4 0 -2.5 0.3 -2.5 0.8 0 0.4 1.1 0.7 2.5 0.7 1.4 0 2.5 -0.3 2.5 -0.7z m-11.7 -0.5 c-1.3 -0.2 -3.5 -0.2 -5 0 -1.6 0.2 -0.5 0.4 2.2 0.4 2.8 0 4 -0.2 2.8 -0.4z m188.6 -1 c-4.7 -5.9 -5.4 -8.5 -5.4 -21 0 -14.5 -1.4 -13.8 -1.8 0.9 -0.2 10.2 -0.2 10.4 3.3 16.1 1.9 3.1 3.8 5.7 4.4 5.7 0.5 0 0.3 -0.8 -0.5 -1.7z m25.2 -5.5 c0.5 -1.8 0.8 -6.7 0.8 -10.8 l-0.2 -7.5 -0.8 8.8 c-0.5 4.8 -1.5 10 -2.4 11.7 -1.9 3.7 -1.9 4.6 0.1 2.6 0.8 -0.9 2 -3.1 2.5 -4.8z m-199.6 0.2 c0.7 -1.2 -2.1 -1.2 -8.5 -0.1 l-4.5 0.8 6.2 0.2 c3.4 0 6.5 -0.3 6.8 -0.9z m-6.2 -2.7 c-1.3 -0.2 -3.5 -0.2 -5 0 -1.6 0.2 -0.5 0.4 2.2 0.4 2.8 0 4 -0.2 2.8 -0.4z m-0.3 -1.7 c0 -0.9 -3.9 -1.3 -5.1 -0.5 -1 0.6 -0.4 0.9 1.9 0.9 1.7 0 3.2 -0.2 3.2 -0.4z m10.6 -0.8 c0.3 -0.4 -1.5 -0.8 -4 -0.8 -2.5 0 -4.7 0.4 -5 0.9 -0.4 0.5 1.4 0.9 3.9 0.9 2.5 -0.1 4.8 -0.5 5.1 -1z m168.7 -1.6 c-1.8 -0.5 -2.7 0.3 -1.8 1.7 0.4 0.7 1 0.7 2 -0.2 1.1 -1 1.1 -1.3 -0.2 -1.5z m20.2 0.8 c1.9 -0.8 1.9 -0.9 -0.2 -0.9 -1.2 -0.1 -2.5 0.4 -2.8 0.9 -0.7 1.2 0.2 1.2 3 0z m-186.5 -2.1 c0 -0.9 -23 -0.2 -23.9 0.6 -0.2 0.3 5.1 0.4 11.7 0.4 6.7 -0.1 12.2 -0.5 12.2 -1z m188 -0.9 c-0.8 -0.5 -1.5 -1.5 -1.5 -2.1 0 -0.7 -0.6 -1.4 -1.2 -1.6 -0.9 -0.3 -1.2 0.4 -1.1 2.1 0.2 2.1 0.8 2.6 2.8 2.6 2 0 2.2 -0.2 1 -1z m-220.2 -0.7 c-1 -0.2 -2.8 -0.2 -4 0 -1.3 0.2 -0.5 0.4 1.7 0.4 2.2 0.1 3.2 -0.1 2.3 -0.4z m18.2 -0.5 c0 -0.5 0.6 -0.8 1.3 -0.7 0.6 0.1 1.9 0.1 2.7 -0.1 2.3 -0.2 -1.9 -1.8 -5.2 -1.9 -2.1 -0.1 -2.5 0.3 -2.1 1.7 0.4 1.9 3.3 2.7 3.3 1z m185.7 -0.9 c-0.1 -1.5 -0.4 -1.5 -2.2 -0.3 -1.2 0.8 -2.5 1.1 -3 0.7 -0.4 -0.5 -0.6 -0.3 -0.2 0.3 1 1.8 5.6 1.2 5.4 -0.7z m10.1 0.3 c0.6 -1.8 -1.5 -1.4 -2.2 0.4 -0.4 1 -0.1 1.4 0.6 1.2 0.6 -0.2 1.4 -1 1.6 -1.6z m17.2 -2.4 c0 -1 0.5 -1.8 1 -1.8 0.6 0 1 -0.6 1 -1.2 0 -0.7 -1.2 0 -2.6 1.5 -1.6 1.8 -2.3 3.4 -1.9 4.5 0.5 1.4 0.7 1.4 1.5 0.2 0.6 -0.8 1 -2.3 1 -3.2z m-203 2.2 c0 -0.5 -1 -1 -2.2 -1 -1.9 0 -2 0.2 -0.8 1 1.9 1.3 3 1.3 3 0z m-29.5 -1 c0.4 -0.6 -0.7 -1 -2.7 -1 -2.5 0 -2.9 0.3 -1.8 1 1.9 1.3 3.7 1.3 4.5 0z m10.3 -0.7 c-1.5 -0.2 -4.2 -0.2 -6 0 -1.8 0.2 -0.6 0.4 2.7 0.4 3.3 0 4.8 -0.2 3.3 -0.4z m39.5 -0.4 c-0.8 -0.8 -1.6 -0.8 -3 0 -1.6 0.9 -1.4 1 1.2 1.1 2.1 0 2.6 -0.3 1.8 -1.1z m165.2 -0.9 c-0.3 -0.5 -1.6 -1.5 -2.8 -2 -2.1 -1.1 -2.1 -1.1 -0.3 0.4 1.5 1.2 1.6 1.6 0.5 1.6 -0.8 0 -2 -0.5 -2.7 -1.2 -0.8 -0.8 -1.2 -0.9 -1.2 -0.1 0 1.4 1.7 2.1 4.8 2.2 1.3 0.1 2 -0.3 1.7 -0.9z m-26.5 -5 c-2.4 -1.5 -3.7 -1.1 -1.6 0.5 1.1 0.8 2.2 1.2 2.5 0.9 0.3 -0.3 -0.1 -0.9 -0.9 -1.4z m-162 0 c-0.8 -0.5 -7.3 -0.9 -14.5 -0.8 -14.6 0.1 -10.8 1.2 5.5 1.5 7.1 0.2 10 0 9 -0.7z m41 -1 c0 -0.5 -0.9 -1 -2.1 -1 -1.1 0 -1.7 0.5 -1.4 1 0.3 0.6 1.3 1 2.1 1 0.8 0 1.4 -0.4 1.4 -1z m12 -2.3 c0.8 -0.3 -3.2 -0.6 -8.9 -0.6 -5.7 -0.1 -10.2 0.1 -9.9 0.4 0.3 0.3 3.3 0.6 6.7 0.6 3.3 0.1 6.4 0.5 6.7 1 0.3 0.5 1.2 0.5 2.2 0 0.9 -0.4 2.4 -1.1 3.2 -1.4z m-57.2 0.6 c-1 -0.2 -2.6 -0.2 -3.5 0 -1 0.3 -0.2 0.5 1.7 0.5 1.9 0 2.7 -0.2 1.8 -0.5z m88.2 -1.5 c0 -1.6 -0.3 -1.9 -1.1 -1.1 -0.6 0.6 -0.8 1.6 -0.5 2.2 1.1 1.7 1.6 1.3 1.6 -1.1z m-62.2 0.5 c-1.6 -0.2 -4 -0.2 -5.5 0 -1.6 0.2 -0.3 0.4 2.7 0.4 3 0 4.3 -0.2 2.8 -0.4z m9.5 0 c-1.3 -0.2 -3.3 -0.2 -4.5 0 -1.3 0.2 -0.3 0.4 2.2 0.4 2.5 0 3.5 -0.2 2.3 -0.4z m49.4 0 c-0.9 -0.8 -10.6 -0.7 -11.4 0.1 -0.4 0.3 2.2 0.6 5.7 0.6 3.5 0 6 -0.3 5.7 -0.7z m81.8 -0.3 c-1.1 -0.5 -2.7 -0.9 -3.5 -0.9 -0.9 0 -0.8 0.4 0.5 0.9 1.1 0.5 2.7 0.9 3.5 0.9 0.9 0 0.8 -0.4 -0.5 -0.9z m-7 -1 c-0.4 -0.6 0.7 -1 2.6 -1 5.1 0 3 -0.7 -4.4 -1.4 -4.6 -0.5 -6.7 -0.3 -6.2 0.4 0.3 0.5 2.1 1 3.8 1 2.4 0 2.8 0.3 1.7 1 -1.2 0.8 -1 1 0.8 1 1.3 0 2 -0.4 1.7 -1z m32.5 -1.2 c0 -1.9 -0.2 -2 -1 -0.8 -1.3 1.9 -1.3 3 0 3 0.6 0 1 -1 1 -2.2z m-153 0 c0 -0.3 -0.8 -0.9 -1.7 -1.1 -1 -0.3 1.6 -0.5 5.7 -0.6 4.1 -0.1 6.9 -0.5 6.3 -0.9 -0.7 -0.4 -2.5 -0.7 -4 -0.6 -1.6 0.1 -5.3 0.2 -8.3 0.3 -3.9 0.2 -4.9 0.5 -3.5 1 1.5 0.6 0.6 0.9 -3.3 1.2 -5.6 0.4 -7.3 -0.7 -1.9 -1.4 2.8 -0.3 2.7 -0.4 -1 -0.5 -4.1 -0.2 -4.2 0 -3.4 3.6 0.2 0.7 15.1 -0.3 15.1 -1z m30 0.5 c0 -0.4 -6.3 -0.9 -14.1 -1.1 -8.4 -0.2 -13.9 0 -13.5 0.6 0.7 1.1 27.6 1.6 27.6 0.5z m146.8 -1 c1.6 -1.6 1.6 -1.6 -0.1 -1 -1 0.4 -2.5 0.7 -3.3 0.7 -0.8 0 -1.4 0.5 -1.4 1 0 1.6 3 1.2 4.8 -0.7z m-116 0 c-1 -0.2 -2.8 -0.2 -4 0 -1.3 0.2 -0.5 0.4 1.7 0.4 2.2 0.1 3.2 -0.1 2.3 -0.4z m-109 -1 c-1 -0.2 -2.8 -0.2 -4 0 -1.3 0.2 -0.5 0.4 1.7 0.4 2.2 0.1 3.2 -0.1 2.3 -0.4z m97 -1.8 c-0.1 -1.3 -0.6 -2.1 -1 -1.7 -0.5 0.5 -0.6 1.6 -0.2 2.5 0.9 2.4 1.4 2.1 1.2 -0.8z m-20 0.8 c-1.5 -0.2 -4.2 -0.2 -6 0 -1.8 0.2 -0.6 0.4 2.7 0.4 3.3 0 4.8 -0.2 3.3 -0.4z m95.7 -0.4 c-1.8 -0.5 -3.3 -0.5 -3.9 0.1 -0.7 0.7 0.4 1 3 0.9 3.9 -0.1 3.9 -0.1 0.9 -1z m-3.5 -1.4 c2.4 -1.4 2.3 -1.4 -2.5 -1.3 -4.2 0 -4.5 0.1 -2 0.8 l3 0.7 -3.5 0.5 c-3.3 0.5 -3.3 0.5 -0.5 0.6 1.7 0.1 4.1 -0.5 5.5 -1.3z m39.7 0 c0 -0.8 -0.6 -1.5 -1.3 -1.5 -0.8 0 -1.1 0.6 -0.8 1.5 0.4 0.8 0.9 1.5 1.3 1.5 0.4 0 0.8 -0.7 0.8 -1.5z m-204.2 -0.4 c-5 -0.4 -7.1 -0.9 -5.5 -1.2 2.3 -0.6 2.2 -0.6 -0.7 -0.8 -1.8 0 -3.3 0.3 -3.3 0.8 0 0.5 -1 1.2 -2.2 1.4 -1.3 0.2 2.7 0.4 8.7 0.4 10.7 -0.1 10.8 -0.1 3 -0.6z m188.5 -0.7 c0 -0.2 -1.2 -0.4 -2.7 -0.4 -2.1 0 -2.4 0.3 -1.4 0.9 1.3 0.8 4.1 0.5 4.1 -0.5z m-178.9 -1.3 c-0.8 -0.5 -2 -0.7 -2.8 -0.4 -2.1 0.8 -1.5 1.3 1.5 1.3 2 0 2.3 -0.3 1.3 -0.9z m65.8 0.4 c-0.8 -0.7 -7.8 -0.9 -8.5 -0.2 -0.4 0.4 1.4 0.7 4.1 0.7 2.7 0 4.6 -0.2 4.4 -0.5z m-48.6 -1.2 c-1.3 -0.2 -3.3 -0.2 -4.5 0 -1.3 0.2 -0.3 0.4 2.2 0.4 2.5 0 3.5 -0.2 2.3 -0.4z m8.5 0 c-1 -0.2 -2.8 -0.2 -4 0 -1.3 0.2 -0.5 0.4 1.7 0.4 2.2 0.1 3.2 -0.1 2.3 -0.4z m126.7 -1.3 c-0.7 -2.3 1 -2.8 1.9 -0.5 0.3 0.8 1 1.5 1.6 1.5 0.6 0 0.6 -0.7 -0.2 -1.9 -0.7 -1.2 -2.2 -1.9 -3.9 -1.9 -3 0.1 -3.3 1.5 -0.9 3.5 2.1 1.7 2.2 1.6 1.5 -0.7z m38.6 1.1 c-1.1 -0.7 -1 -1 0.5 -1.4 1.4 -0.3 1.3 -0.5 -0.7 -0.6 -1.7 -0.1 -2.6 0.4 -2.6 1.4 0 0.9 0.9 1.5 2.1 1.5 1.6 0 1.8 -0.2 0.7 -0.9z m-9.6 -1.1 c0.4 -0.6 -1.1 -1 -3.7 -1 -3.1 0 -3.9 0.3 -2.8 1 2 1.3 5.7 1.3 6.5 0z m-127.5 -1 c0.9 -0.1 0.6 -0.5 -0.8 -1.1 -2.4 -0.9 -4.2 -0.5 -4.2 1.1 0 0.4 0.8 0.7 1.8 0.5 0.9 -0.2 2.4 -0.4 3.2 -0.5z m84.4 0.2 c0.3 -0.5 2.4 -0.9 4.7 -1 5.2 -0.2 6.6 -1.2 1.7 -1.2 -5.1 0 -9.9 1.1 -9.2 2.1 0.7 1.1 2.1 1.2 2.8 0.1z m-135.4 -1.8 c0 -0.2 -1.4 -0.4 -3.1 -0.4 -1.6 0 -2.8 0.4 -2.5 0.9 0.5 0.8 5.6 0.3 5.6 -0.5z m61.8 0.9 c-1.5 -0.2 -4.2 -0.2 -6 0 -1.8 0.2 -0.6 0.4 2.7 0.4 3.3 0 4.8 -0.2 3.3 -0.4z m-31.8 -0.7 c0 -0.2 -1.3 -0.9 -3 -1.5 -2.4 -0.8 -3 -0.7 -3 0.5 0 0.9 1 1.4 3 1.4 1.7 0 3 -0.2 3 -0.4z m160 -0.6 c-0.8 -0.5 -1.1 -1 -0.7 -1 1.4 0 -2 -3 -3.4 -3 -0.7 0 -0.4 0.6 0.7 1.5 1.6 1.3 1.7 1.6 0.4 2.5 -1.2 0.7 -0.8 1 1.5 1 2.3 0 2.7 -0.3 1.5 -1z m-153.1 -3.2 c1.2 -1.7 1 -1.8 -2.5 -1.7 -2.9 0.2 -3.2 0.3 -1.2 0.6 2 0.3 2.5 0.8 2.1 2.1 -0.7 1.8 -0.5 1.7 1.6 -1z m108.4 1.5 c-1.3 -0.2 -3.5 -0.2 -5 0 -1.6 0.2 -0.5 0.4 2.2 0.4 2.8 0 4 -0.2 2.8 -0.4z m80.7 -1.3 c0 -1.2 -0.8 -1.2 -3.5 0 -1.8 0.8 -1.7 0.9 0.8 0.9 1.5 0.1 2.7 -0.3 2.7 -0.9z m-172 -1 c1.1 -0.7 0.6 -1 -2 -1 -2.6 0 -3.1 0.3 -2 1 0.8 0.5 1.7 1 2 1 0.3 0 1.2 -0.5 2 -1z m122.8 -1.7 c-1 -0.2 -2.8 -0.2 -4 0 -1.3 0.2 -0.5 0.4 1.7 0.4 2.2 0.1 3.2 -0.1 2.3 -0.4z m-154.8 -0.7 c0 -0.8 -5.1 -1.3 -5.6 -0.5 -0.3 0.5 0.9 0.9 2.5 0.9 1.7 0 3.1 -0.2 3.1 -0.4z m17 -0.6 c0 -0.5 -0.9 -1 -2.1 -1 -1.1 0 -1.7 0.5 -1.4 1 0.3 0.6 1.3 1 2.1 1 0.8 0 1.4 -0.4 1.4 -1z m11 0 c0 -0.5 1.9 -1.1 4.3 -1.2 l4.2 -0.1 -4.5 -0.6 c-3.1 -0.4 -4.6 -0.2 -4.8 0.6 -0.2 0.6 -1.1 1.4 -2 1.6 -1.2 0.3 -1 0.5 0.6 0.6 1.2 0 2.2 -0.3 2.2 -0.9z m-12.1 -2.4 c-0.9 -0.9 -17 -1.3 -17.5 -0.5 -0.3 0.5 3.6 0.9 8.7 0.9 5.1 0 9 -0.2 8.8 -0.4z m127.1 -1 c0 -0.2 -1.1 -0.6 -2.5 -0.8 -1.4 -0.3 -2.5 -0.1 -2.5 0.3 0 0.5 1.1 0.9 2.5 0.9 1.4 0 2.5 -0.2 2.5 -0.4z m-121 -1.2 c-3.4 -0.7 -11 -0.9 -11 -0.2 0 0.5 2.8 0.7 6.3 0.7 3.4 -0.1 5.5 -0.3 4.7 -0.5z m141 -0.4 c-3.6 -1.1 -5 -1.1 -5 0 0 0.6 1.7 1 3.8 0.9 3.3 -0.1 3.4 -0.2 1.2 -0.9z m-167.5 -2.8 c-2.6 -0.4 -2.8 -0.5 -1 -1.2 1.7 -0.8 1.6 -0.9 -0.8 -0.9 -1.9 -0.1 -2.6 0.3 -2.1 1 0.5 0.9 -0.1 1 -2 0.5 -1.5 -0.4 -2.6 -0.2 -2.6 0.4 0 0.6 2.4 0.9 5.8 0.9 3.5 -0.1 4.6 -0.4 2.7 -0.7z m167.2 -1 c-0.9 -0.2 -1.5 -0.8 -1.2 -1.3 0.4 -0.5 -0.3 -0.9 -1.4 -0.9 -2 0 -2 0.1 -0.3 1.8 0.9 1 2.4 1.6 3.2 1.3 1.2 -0.4 1.2 -0.6 -0.3 -0.9z m-180.1 -2.1 c-0.4 -0.5 0 -1.2 0.6 -1.4 0.7 -0.3 0 -0.6 -1.5 -0.6 -2.4 -0.1 -2.6 0.1 -1.5 1.4 1.4 1.6 3.3 2.1 2.4 0.6z m19.4 -1.7 c0 -0.2 -3.5 -0.3 -7.7 -0.2 -7.5 0.1 -7.6 0.1 -2.3 0.7 5.2 0.6 10 0.3 10 -0.5z m17.5 1.1 c-2.4 -0.8 -15.4 -1.1 -14.9 -0.4 0.3 0.5 4 0.9 8.2 0.8 4.2 0 7.3 -0.2 6.7 -0.4z m121.5 -0.5 c0 -0.5 -2.1 -0.9 -4.7 -0.9 -4.7 0.2 -4.7 0.2 -1.3 0.9 5.2 1.1 6 1.1 6 0z m18.7 -1.6 c0.5 -1.6 -2.5 -1.3 -3.2 0.3 -0.3 1 0.1 1.3 1.2 1.1 0.9 -0.2 1.8 -0.8 2 -1.4z m-133.2 -0.5 c-5.5 -1.1 -8.5 -1.1 -8.5 0.1 0 0.6 2.7 1 6.3 0.9 5.9 -0.1 6 -0.2 2.2 -1z m-35.7 -0.6 c-1 -0.2 -2.6 -0.2 -3.5 0 -1 0.3 -0.2 0.5 1.7 0.5 1.9 0 2.7 -0.2 1.8 -0.5z m146.7 -0.3 c-1.6 -0.4 -5.7 -0.8 -9 -0.8 -5.1 0.1 -5.5 0.2 -2.5 0.8 1.9 0.4 6 0.7 9 0.8 4.5 0 4.9 -0.2 2.5 -0.8z m48.3 -1.7 c-1 -0.2 -2.6 -0.2 -3.5 0 -1 0.3 -0.2 0.5 1.7 0.5 1.9 0 2.7 -0.2 1.8 -0.5z m-207.9 -1.9 c0.2 -0.2 -1.4 -0.4 -3.7 -0.4 -2.3 0 -4.2 0.5 -4.2 1 0 1 6.7 0.4 7.9 -0.6z m155.4 0.9 c-1.3 -0.2 -3.3 -0.2 -4.5 0 -1.3 0.2 -0.3 0.4 2.2 0.4 2.5 0 3.5 -0.2 2.3 -0.4z m58.7 -1.3 c0 -0.6 -1.1 -0.8 -2.7 -0.4 -4 1 -4.1 1.4 -0.5 1.4 1.8 0 3.2 -0.5 3.2 -1z m-174.5 -0.9 c-6.9 -1.2 -27.2 -1.3 -25.5 -0.1 0.8 0.5 7.6 0.9 15.5 0.8 8.4 0 12.4 -0.4 10 -0.7z m112.3 0.2 c-1 -0.2 -2.8 -0.2 -4 0 -1.3 0.2 -0.5 0.4 1.7 0.4 2.2 0.1 3.2 -0.1 2.3 -0.4z m54 -1 c-1 -0.2 -2.8 -0.2 -4 0 -1.3 0.2 -0.5 0.4 1.7 0.4 2.2 0.1 3.2 -0.1 2.3 -0.4z m-51.6 -1 c-1.5 -0.3 -2.2 -1 -1.8 -1.9 0.4 -1.1 -0.4 -1.4 -3.5 -1.4 -2.8 0 -3.9 0.4 -3.7 1.2 0.5 1.5 4.2 2.6 8.3 2.6 2.4 -0.1 2.5 -0.2 0.7 -0.5z m-135.6 -1.4 c0.3 -0.5 -2.8 -0.9 -6.8 -0.9 -4 0 -6.7 0.4 -6.1 0.8 1.8 1.1 12.2 1.2 12.9 0.1z m139.4 -0.9 c0 -0.5 -0.9 -1 -2 -1 -1.1 0 -2 0.5 -2 1 0 0.6 0.9 1 2 1 1.1 0 2 -0.4 2 -1z m49.9 -1.6 c0.2 -0.2 -0.7 -0.4 -2.2 -0.4 -1.4 0 -2.9 0.5 -3.2 1 -0.6 1 4.2 0.4 5.4 -0.6z m-206.5 -0.8 c-0.6 -1.5 -7.2 -2.7 -8 -1.4 -0.3 0.4 1.1 0.8 3 0.8 1.9 0 3.8 0.5 4.1 1 0.9 1.5 1.5 1.2 0.9 -0.4z m153.7 -0.5 c-1.9 -1.2 -11.3 -1.3 -10.6 -0.1 0.3 0.6 3.2 1 6.3 1 3.6 0 5.2 -0.4 4.3 -0.9z m-8 -3 c-1.1 -0.7 -1 -1 0.5 -1.4 1 -0.2 0.3 -0.5 -1.6 -0.5 -1.9 0 -2.9 0.2 -2.2 0.5 0.6 0.2 1 0.9 0.6 1.4 -0.3 0.5 0.5 0.9 1.8 0.9 1.7 0 1.9 -0.3 0.9 -0.9z m-167.1 -1.1 c-0.8 -0.5 -2.1 -1 -2.8 -1 -1.4 0 -4.8 -1.4 -12.8 -5.1 -4.6 -2.1 -6.4 -2.4 -6.4 -0.9 0 0.6 0.7 1 1.5 1 0.7 0 1.8 0.8 2.3 1.7 0.6 1.1 2.8 1.9 5.8 2.3 3.1 0.3 4.8 1 4.7 1.8 -0.2 0.8 1.2 1.2 4.5 1.2 3.4 0 4.3 -0.3 3.2 -1z m204.6 -6.9 c-0.4 -0.5 0 -1.2 0.6 -1.4 0.8 -0.4 0.9 -0.6 0.2 -0.6 -0.6 -0.1 -1.7 0.6 -2.4 1.4 -1 1.2 -0.9 1.5 0.4 1.5 1 0 1.5 -0.4 1.2 -0.9z m42.2 0.2 c-1 -0.2 -2.8 -0.2 -4 0 -1.3 0.2 -0.5 0.4 1.7 0.4 2.2 0.1 3.2 -0.1 2.3 -0.4z m-68 -25 c-1.6 -0.2 -4 -0.2 -5.5 0 -1.6 0.2 -0.3 0.4 2.7 0.4 3 0 4.3 -0.2 2.8 -0.4z m52 -2 c-1 -0.2 -2.6 -0.2 -3.5 0 -1 0.3 -0.2 0.5 1.7 0.5 1.9 0 2.7 -0.2 1.8 -0.5z" />
    </g>
</svg>